<svg id="Layer_1" data-name="Layer 1" xmlns="http://www.w3.org/2000/svg" xmlns:xlink="http://www.w3.org/1999/xlink" viewBox="0 0 380 330"><defs><style>.cls-1{fill:none;}.cls-2{clip-path:url(#clip-path);}</style><clipPath id="clip-path"><rect class="cls-1" width="380" height="330"/></clipPath></defs><title>Artboard 1</title><g class="cls-2"><path d="M378.57,164.86l-50-83.41,5.32-2.23A10,10,0,0,0,330,60H200V10a10,10,0,0,0-20,0V60H50a10,10,0,0,0-3.86,19.23l5.33,2.23-50,83.41A10,10,0,0,0,0,170a70,70,0,0,0,140,0,10,10,0,0,0-1.42-5.14L87.66,80H180V310H60a10,10,0,0,0,0,20H320a10,10,0,0,0,0-20H200V80h92.34l-50.91,84.87A10,10,0,0,0,240,170a70,70,0,1,0,140,0,10,10,0,0,0-1.43-5.14M117.13,186.68a50,50,0,0,1-94.26,0L20.5,180h99ZM112.34,160H27.66L70,89.44ZM310,89.44,352.34,160H267.66Zm47.13,97.24a50,50,0,0,1-94.26,0L260.5,180h99Z"/></g></svg>