<svg id="Capa_1" data-name="Capa 1" xmlns="http://www.w3.org/2000/svg" viewBox="0 0 512 512"><title>Монтажная область 1</title><path d="M280,450c12.06-7,75.13-44.72,132.67-98.42,62.91-58.71,94.8-113.66,94.8-163.32,0-41.27-13.5-76.75-39-102.61C444.16,61,410.62,47.45,374,47.45c-51.12,0-90.54,24.63-114,71.23l-4,8-4-8c-23.44-46.6-62.86-71.23-114-71.23-36.62,0-70.17,13.55-94.47,38.17C18,111.48,4.5,147,4.5,188.23c0,49.65,31.9,104.6,94.8,163.32C156.85,405.26,219.91,443,232,450c5.05,2.94,16.29,9.42,16.29,9.42l7.75,4.47,7.74-4.47S275,452.9,280,450Zm-24-21.91-2.25-1.3-6.2-3.59c-11.55-6.72-72-42.84-127.09-94.28-55.58-51.88-85-100.51-85-140.65C35.5,123.6,77.65,78.45,138,78.45c39.39,0,67.46,17.43,85.83,53.27,11.23,21.9,15.07,44.51,16.24,53.68h31.85c1.15-9,4.91-31.1,15.73-52.67,18.08-36,47.13-54.28,86.34-54.28,60.35,0,102.5,45.14,102.5,109.77,0,40.14-29.38,88.78-85,140.65-55.12,51.45-115.55,87.56-127.1,94.28l-6.19,3.59Z"/></svg>